<?xml version="1.0" encoding="UTF-8" standalone="no" ?>
<!DOCTYPE svg PUBLIC "-//W3C//DTD SVG 1.1//EN" "http://www.w3.org/Graphics/SVG/1.1/DTD/svg11.dtd">
<svg xmlns="http://www.w3.org/2000/svg" xmlns:xlink="http://www.w3.org/1999/xlink" version="1.1" width="1280" height="1024" viewBox="0 0 1280 1024" xml:space="preserve">
<desc>Created with Fabric.js 5.3.0</desc>
<defs>
</defs>
<g transform="matrix(1 0 0 1 640 512)" id="background-logo"  >
<rect style="stroke: none; stroke-width: 0; stroke-dasharray: none; stroke-linecap: butt; stroke-dashoffset: 0; stroke-linejoin: miter; stroke-miterlimit: 4; fill: rgb(0,0,0); fill-rule: nonzero; opacity: 1;"  paint-order="stroke"  x="-640" y="-512" rx="0" ry="0" width="1280" height="1024" />
</g>
<g transform="matrix(1.9211538461538462 0 0 1.9211538461538462 640 411.7353717671841)" id="logo-logo"  >
<g style=""  paint-order="stroke"   >
		<g transform="matrix(0.6091776252381563 0 0 0.6091776252381563 0 0)"  >
<g style=""  paint-order="stroke"   >
		<g transform="matrix(1 0 0 1 -116.74999999999999 73.30000000000001)"  >
<circle style="stroke: none; stroke-width: 1; stroke-dasharray: none; stroke-linecap: butt; stroke-dashoffset: 0; stroke-linejoin: miter; stroke-miterlimit: 4; fill: rgb(255,255,255); fill-rule: nonzero; opacity: 1;"  paint-order="stroke"  cx="0" cy="0" r="0.9" />
</g>
		<g transform="matrix(1 0 0 1 -99.64999999999999 89.80000000000001)"  >
<path style="stroke: none; stroke-width: 1; stroke-dasharray: none; stroke-linecap: butt; stroke-dashoffset: 0; stroke-linejoin: miter; stroke-miterlimit: 4; fill: rgb(255,255,255); fill-rule: nonzero; opacity: 1;"  paint-order="stroke"  transform=" translate(-36.8, -239.8)" d="M 35.3 239.8 C 35.3 240.60000000000002 35.9 241.3 36.8 241.3 C 37.599999999999994 241.3 38.3 240.70000000000002 38.3 239.8 C 38.3 239 37.699999999999996 238.3 36.8 238.3 C 36 238.3 35.3 239 35.3 239.8 z" stroke-linecap="round" />
</g>
		<g transform="matrix(1 0 0 1 -81.14999999999999 102.80000000000001)"  >
<path style="stroke: none; stroke-width: 1; stroke-dasharray: none; stroke-linecap: butt; stroke-dashoffset: 0; stroke-linejoin: miter; stroke-miterlimit: 4; fill: rgb(255,255,255); fill-rule: nonzero; opacity: 1;"  paint-order="stroke"  transform=" translate(-55.3, -252.8)" d="M 55.3 250.8 C 54.199999999999996 250.8 53.3 251.70000000000002 53.3 252.8 C 53.3 253.9 54.199999999999996 254.8 55.3 254.8 C 56.4 254.8 57.3 253.9 57.3 252.8 C 57.3 251.7 56.4 250.8 55.3 250.8 z" stroke-linecap="round" />
</g>
		<g transform="matrix(1 0 0 1 -61.54999999999998 112.39999999999998)"  >
<circle style="stroke: none; stroke-width: 1; stroke-dasharray: none; stroke-linecap: butt; stroke-dashoffset: 0; stroke-linejoin: miter; stroke-miterlimit: 4; fill: rgb(255,255,255); fill-rule: nonzero; opacity: 1;"  paint-order="stroke"  cx="0" cy="0" r="2.5" />
</g>
		<g transform="matrix(1 0 0 1 -41.14999999999999 118.60000000000002)"  >
<path style="stroke: none; stroke-width: 1; stroke-dasharray: none; stroke-linecap: butt; stroke-dashoffset: 0; stroke-linejoin: miter; stroke-miterlimit: 4; fill: rgb(255,255,255); fill-rule: nonzero; opacity: 1;"  paint-order="stroke"  transform=" translate(-95.3, -268.6)" d="M 95.3 265.5 C 93.6 265.5 92.2 266.9 92.2 268.6 C 92.2 270.3 93.60000000000001 271.70000000000005 95.3 271.70000000000005 C 97 271.70000000000005 98.39999999999999 270.30000000000007 98.39999999999999 268.6 C 98.3 266.9 97 265.5 95.3 265.5 z" stroke-linecap="round" />
</g>
		<g transform="matrix(1 0 0 1 -20.44999999999999 121.40000000000003)"  >
<path style="stroke: none; stroke-width: 1; stroke-dasharray: none; stroke-linecap: butt; stroke-dashoffset: 0; stroke-linejoin: miter; stroke-miterlimit: 4; fill: rgb(255,255,255); fill-rule: nonzero; opacity: 1;"  paint-order="stroke"  transform=" translate(-116, -271.40000000000003)" d="M 116 267.8 C 114 267.8 112.4 269.40000000000003 112.4 271.40000000000003 C 112.4 273.40000000000003 114 275.00000000000006 116 275.00000000000006 C 118 275.00000000000006 119.6 273.40000000000003 119.6 271.40000000000003 C 119.6 269.4 118 267.8 116 267.8 z" stroke-linecap="round" />
</g>
		<g transform="matrix(1 0 0 1 0.25 120.80000000000001)"  >
<circle style="stroke: none; stroke-width: 1; stroke-dasharray: none; stroke-linecap: butt; stroke-dashoffset: 0; stroke-linejoin: miter; stroke-miterlimit: 4; fill: rgb(255,255,255); fill-rule: nonzero; opacity: 1;"  paint-order="stroke"  cx="0" cy="0" r="4.2" />
</g>
		<g transform="matrix(1 0 0 1 20.650000000000006 116.80000000000001)"  >
<path style="stroke: none; stroke-width: 1; stroke-dasharray: none; stroke-linecap: butt; stroke-dashoffset: 0; stroke-linejoin: miter; stroke-miterlimit: 4; fill: rgb(255,255,255); fill-rule: nonzero; opacity: 1;"  paint-order="stroke"  transform=" translate(-157.1, -266.8)" d="M 157.1 262.1 C 154.5 262.1 152.4 264.20000000000005 152.4 266.8 C 152.4 269.40000000000003 154.5 271.5 157.1 271.5 C 159.7 271.5 161.79999999999998 269.4 161.79999999999998 266.8 C 161.8 264.3 159.7 262.1 157.1 262.1 z" stroke-linecap="round" />
</g>
		<g transform="matrix(1 0 0 1 40.25 109.60000000000002)"  >
<path style="stroke: none; stroke-width: 1; stroke-dasharray: none; stroke-linecap: butt; stroke-dashoffset: 0; stroke-linejoin: miter; stroke-miterlimit: 4; fill: rgb(255,255,255); fill-rule: nonzero; opacity: 1;"  paint-order="stroke"  transform=" translate(-176.7, -259.6)" d="M 176.7 254.3 C 173.79999999999998 254.3 171.39999999999998 256.7 171.39999999999998 259.6 C 171.39999999999998 262.5 173.79999999999998 264.90000000000003 176.7 264.90000000000003 C 179.6 264.90000000000003 182 262.50000000000006 182 259.6 C 182 256.6 179.6 254.3 176.7 254.3 z" stroke-linecap="round" />
</g>
		<g transform="matrix(1 0 0 1 58.75 98.89999999999998)"  >
<path style="stroke: none; stroke-width: 1; stroke-dasharray: none; stroke-linecap: butt; stroke-dashoffset: 0; stroke-linejoin: miter; stroke-miterlimit: 4; fill: rgb(255,255,255); fill-rule: nonzero; opacity: 1;"  paint-order="stroke"  transform=" translate(-195.2, -248.89999999999998)" d="M 195.2 254.7 C 198.39999999999998 254.7 201 252.1 201 248.89999999999998 C 201 245.7 198.4 243.09999999999997 195.2 243.09999999999997 C 192 243.09999999999997 189.39999999999998 245.69999999999996 189.39999999999998 248.89999999999998 C 189.4 252.1 192 254.7 195.2 254.7 z" stroke-linecap="round" />
</g>
		<g transform="matrix(1 0 0 1 75.75 84.9)"  >
<path style="stroke: none; stroke-width: 1; stroke-dasharray: none; stroke-linecap: butt; stroke-dashoffset: 0; stroke-linejoin: miter; stroke-miterlimit: 4; fill: rgb(255,255,255); fill-rule: nonzero; opacity: 1;"  paint-order="stroke"  transform=" translate(-212.2, -234.9)" d="M 218.6 234.9 C 218.6 231.4 215.7 228.5 212.2 228.5 C 208.7 228.5 205.79999999999998 231.4 205.79999999999998 234.9 C 205.79999999999998 238.4 208.7 241.3 212.2 241.3 C 215.8 241.3 218.6 238.5 218.6 234.9 z" stroke-linecap="round" />
</g>
		<g transform="matrix(1 0 0 1 90.95000000000002 67.69999999999999)"  >
<path style="stroke: none; stroke-width: 1; stroke-dasharray: none; stroke-linecap: butt; stroke-dashoffset: 0; stroke-linejoin: miter; stroke-miterlimit: 4; fill: rgb(255,255,255); fill-rule: nonzero; opacity: 1;"  paint-order="stroke"  transform=" translate(-227.4, -217.7)" d="M 227.4 224.6 C 231.20000000000002 224.6 234.3 221.5 234.3 217.7 C 234.3 213.89999999999998 231.20000000000002 210.79999999999998 227.4 210.79999999999998 C 223.6 210.79999999999998 220.5 213.89999999999998 220.5 217.7 C 220.5 221.5 223.6 224.6 227.4 224.6 z" stroke-linecap="round" />
</g>
		<g transform="matrix(1 0 0 1 -133.95 62.5)"  >
<path style="stroke: none; stroke-width: 1; stroke-dasharray: none; stroke-linecap: butt; stroke-dashoffset: 0; stroke-linejoin: miter; stroke-miterlimit: 4; fill: rgb(255,255,255); fill-rule: nonzero; opacity: 1;"  paint-order="stroke"  transform=" translate(-2.5, -212.5)" d="M 2.5 210 C 1.1 210 0 211.1 0 212.5 C 0 213.9 1.1 215 2.5 215 C 3.9 215 5 213.9 5 212.5 C 5 211.1 3.9 210 2.5 210 z" stroke-linecap="round" />
</g>
		<g transform="matrix(1 0 0 1 -117.44999999999999 88.20000000000002)"  >
<path style="stroke: none; stroke-width: 1; stroke-dasharray: none; stroke-linecap: butt; stroke-dashoffset: 0; stroke-linejoin: miter; stroke-miterlimit: 4; fill: rgb(255,255,255); fill-rule: nonzero; opacity: 1;"  paint-order="stroke"  transform=" translate(-19, -238.20000000000002)" d="M 19 234.8 C 17.1 234.8 15.6 236.3 15.6 238.20000000000002 C 15.6 240.10000000000002 17.1 241.60000000000002 19 241.60000000000002 C 20.9 241.60000000000002 22.4 240.10000000000002 22.4 238.20000000000002 C 22.4 236.3 20.9 234.8 19 234.8 z" stroke-linecap="round" />
</g>
		<g transform="matrix(1 0 0 1 -97.14999999999999 108.89999999999998)"  >
<circle style="stroke: none; stroke-width: 1; stroke-dasharray: none; stroke-linecap: butt; stroke-dashoffset: 0; stroke-linejoin: miter; stroke-miterlimit: 4; fill: rgb(255,255,255); fill-rule: nonzero; opacity: 1;"  paint-order="stroke"  cx="0" cy="0" r="4.2" />
</g>
		<g transform="matrix(1 0 0 1 -73.85 124.89999999999998)"  >
<circle style="stroke: none; stroke-width: 1; stroke-dasharray: none; stroke-linecap: butt; stroke-dashoffset: 0; stroke-linejoin: miter; stroke-miterlimit: 4; fill: rgb(255,255,255); fill-rule: nonzero; opacity: 1;"  paint-order="stroke"  cx="0" cy="0" r="5.1" />
</g>
		<g transform="matrix(1 0 0 1 -48.349999999999994 135.79999999999995)"  >
<path style="stroke: none; stroke-width: 1; stroke-dasharray: none; stroke-linecap: butt; stroke-dashoffset: 0; stroke-linejoin: miter; stroke-miterlimit: 4; fill: rgb(255,255,255); fill-rule: nonzero; opacity: 1;"  paint-order="stroke"  transform=" translate(-88.1, -285.79999999999995)" d="M 88.1 279.9 C 84.8 279.9 82.19999999999999 282.59999999999997 82.19999999999999 285.79999999999995 C 82.19999999999999 289.09999999999997 84.89999999999999 291.69999999999993 88.1 291.69999999999993 C 91.39999999999999 291.69999999999993 94 288.99999999999994 94 285.79999999999995 C 94 282.5 91.4 279.9 88.1 279.9 z" stroke-linecap="round" />
</g>
		<g transform="matrix(1 0 0 1 -21.44999999999999 141.7)"  >
<circle style="stroke: none; stroke-width: 1; stroke-dasharray: none; stroke-linecap: butt; stroke-dashoffset: 0; stroke-linejoin: miter; stroke-miterlimit: 4; fill: rgb(255,255,255); fill-rule: nonzero; opacity: 1;"  paint-order="stroke"  cx="0" cy="0" r="6.8" />
</g>
		<g transform="matrix(1 0 0 1 5.950000000000017 142.39999999999998)"  >
<circle style="stroke: none; stroke-width: 1; stroke-dasharray: none; stroke-linecap: butt; stroke-dashoffset: 0; stroke-linejoin: miter; stroke-miterlimit: 4; fill: rgb(255,255,255); fill-rule: nonzero; opacity: 1;"  paint-order="stroke"  cx="0" cy="0" r="7.6" />
</g>
		<g transform="matrix(1 0 0 1 33.25 137.8)"  >
<path style="stroke: none; stroke-width: 1; stroke-dasharray: none; stroke-linecap: butt; stroke-dashoffset: 0; stroke-linejoin: miter; stroke-miterlimit: 4; fill: rgb(255,255,255); fill-rule: nonzero; opacity: 1;"  paint-order="stroke"  transform=" translate(-169.7, -287.8)" d="M 169.7 279.3 C 165 279.3 161.2 283.1 161.2 287.8 C 161.2 292.5 165 296.3 169.7 296.3 C 174.39999999999998 296.3 178.2 292.5 178.2 287.8 C 178.2 283.1 174.4 279.3 169.7 279.3 z" stroke-linecap="round" />
</g>
		<g transform="matrix(1 0 0 1 59.55000000000001 127.89999999999998)"  >
<circle style="stroke: none; stroke-width: 1; stroke-dasharray: none; stroke-linecap: butt; stroke-dashoffset: 0; stroke-linejoin: miter; stroke-miterlimit: 4; fill: rgb(255,255,255); fill-rule: nonzero; opacity: 1;"  paint-order="stroke"  cx="0" cy="0" r="9.4" />
</g>
		<g transform="matrix(1 0 0 1 84.05000000000001 112.60000000000002)"  >
<path style="stroke: none; stroke-width: 1; stroke-dasharray: none; stroke-linecap: butt; stroke-dashoffset: 0; stroke-linejoin: miter; stroke-miterlimit: 4; fill: rgb(255,255,255); fill-rule: nonzero; opacity: 1;"  paint-order="stroke"  transform=" translate(-220.5, -262.6)" d="M 220.5 252.4 C 214.9 252.4 210.3 257 210.3 262.6 C 210.3 268.20000000000005 214.9 272.8 220.5 272.8 C 226.1 272.8 230.7 268.2 230.7 262.6 C 230.7 257.00000000000006 226.1 252.4 220.5 252.4 z" stroke-linecap="round" />
</g>
		<g transform="matrix(1 0 0 1 105.95000000000002 91.79999999999998)"  >
<path style="stroke: none; stroke-width: 1; stroke-dasharray: none; stroke-linecap: butt; stroke-dashoffset: 0; stroke-linejoin: miter; stroke-miterlimit: 4; fill: rgb(255,255,255); fill-rule: nonzero; opacity: 1;"  paint-order="stroke"  transform=" translate(-242.4, -241.79999999999998)" d="M 242.4 230.7 C 236.3 230.7 231.3 235.7 231.3 241.79999999999998 C 231.3 247.89999999999998 236.3 252.89999999999998 242.4 252.89999999999998 C 248.5 252.89999999999998 253.5 247.89999999999998 253.5 241.79999999999998 C 253.5 235.7 248.6 230.7 242.4 230.7 z" stroke-linecap="round" />
</g>
		<g transform="matrix(1 0 0 1 124.55000000000001 65.30000000000001)"  >
<circle style="stroke: none; stroke-width: 1; stroke-dasharray: none; stroke-linecap: butt; stroke-dashoffset: 0; stroke-linejoin: miter; stroke-miterlimit: 4; fill: rgb(255,255,255); fill-rule: nonzero; opacity: 1;"  paint-order="stroke"  cx="0" cy="0" r="11.9" />
</g>
		<g transform="matrix(1 0 0 1 116.75 -73.3)"  >
<circle style="stroke: none; stroke-width: 1; stroke-dasharray: none; stroke-linecap: butt; stroke-dashoffset: 0; stroke-linejoin: miter; stroke-miterlimit: 4; fill: rgb(255,255,255); fill-rule: nonzero; opacity: 1;"  paint-order="stroke"  cx="0" cy="0" r="0.9" />
</g>
		<g transform="matrix(1 0 0 1 99.75 -89.8)"  >
<path style="stroke: none; stroke-width: 1; stroke-dasharray: none; stroke-linecap: butt; stroke-dashoffset: 0; stroke-linejoin: miter; stroke-miterlimit: 4; fill: rgb(255,255,255); fill-rule: nonzero; opacity: 1;"  paint-order="stroke"  transform=" translate(-236.2, -60.2)" d="M 234.7 60.2 C 234.7 61 235.29999999999998 61.7 236.2 61.7 C 237 61.7 237.7 61 237.7 60.2 C 237.7 59.400000000000006 237.1 58.7 236.2 58.7 C 235.4 58.8 234.7 59.4 234.7 60.2 z" stroke-linecap="round" />
</g>
		<g transform="matrix(1 0 0 1 81.25 -102.8)"  >
<circle style="stroke: none; stroke-width: 1; stroke-dasharray: none; stroke-linecap: butt; stroke-dashoffset: 0; stroke-linejoin: miter; stroke-miterlimit: 4; fill: rgb(255,255,255); fill-rule: nonzero; opacity: 1;"  paint-order="stroke"  cx="0" cy="0" r="2" />
</g>
		<g transform="matrix(1 0 0 1 61.64708330230059 -112.4)"  >
<path style="stroke: none; stroke-width: 1; stroke-dasharray: none; stroke-linecap: butt; stroke-dashoffset: 0; stroke-linejoin: miter; stroke-miterlimit: 4; fill: rgb(255,255,255); fill-rule: nonzero; opacity: 1;"  paint-order="stroke"  transform=" translate(-198.09708330230058, -37.6)" d="M 198.1 40.1 C 199.5 40.1 200.6 39 200.6 37.6 C 200.6 36.2 199.5 35.1 198.1 35.1 C 196.7 35.1 195.6 36.2 195.6 37.6 C 195.5 39 196.7 40.1 198.1 40.1 z" stroke-linecap="round" />
</g>
		<g transform="matrix(1 0 0 1 41.25 -118.6)"  >
<path style="stroke: none; stroke-width: 1; stroke-dasharray: none; stroke-linecap: butt; stroke-dashoffset: 0; stroke-linejoin: miter; stroke-miterlimit: 4; fill: rgb(255,255,255); fill-rule: nonzero; opacity: 1;"  paint-order="stroke"  transform=" translate(-177.7, -31.4)" d="M 177.7 34.5 C 179.39999999999998 34.5 180.79999999999998 33.1 180.79999999999998 31.4 C 180.79999999999998 29.7 179.39999999999998 28.299999999999997 177.7 28.299999999999997 C 176 28.299999999999997 174.6 29.699999999999996 174.6 31.4 C 174.6 33.1 176 34.5 177.7 34.5 z" stroke-linecap="round" />
</g>
		<g transform="matrix(1 0 0 1 20.55000000000001 -121.4)"  >
<circle style="stroke: none; stroke-width: 1; stroke-dasharray: none; stroke-linecap: butt; stroke-dashoffset: 0; stroke-linejoin: miter; stroke-miterlimit: 4; fill: rgb(255,255,255); fill-rule: nonzero; opacity: 1;"  paint-order="stroke"  cx="0" cy="0" r="3.6" />
</g>
		<g transform="matrix(1 0 0 1 -0.25 -120.8)"  >
<path style="stroke: none; stroke-width: 1; stroke-dasharray: none; stroke-linecap: butt; stroke-dashoffset: 0; stroke-linejoin: miter; stroke-miterlimit: 4; fill: rgb(255,255,255); fill-rule: nonzero; opacity: 1;"  paint-order="stroke"  transform=" translate(-136.2, -29.2)" d="M 136.2 33.4 C 138.5 33.4 140.39999999999998 31.5 140.39999999999998 29.2 C 140.39999999999998 26.9 138.49999999999997 25 136.2 25 C 133.89999999999998 25 132 26.9 132 29.2 C 132 31.5 133.9 33.4 136.2 33.4 z" stroke-linecap="round" />
</g>
		<g transform="matrix(1 0 0 1 -20.551640328656205 -116.80000000000001)"  >
<path style="stroke: none; stroke-width: 1; stroke-dasharray: none; stroke-linecap: butt; stroke-dashoffset: 0; stroke-linejoin: miter; stroke-miterlimit: 4; fill: rgb(255,255,255); fill-rule: nonzero; opacity: 1;"  paint-order="stroke"  transform=" translate(-115.89835967134378, -33.199999999999996)" d="M 115.9 37.9 C 118.5 37.9 120.60000000000001 35.8 120.60000000000001 33.199999999999996 C 120.60000000000001 30.599999999999994 118.50000000000001 28.499999999999996 115.9 28.499999999999996 C 113.30000000000001 28.499999999999996 111.2 30.599999999999998 111.2 33.199999999999996 C 111.1 35.7 113.3 37.9 115.9 37.9 z" stroke-linecap="round" />
</g>
		<g transform="matrix(1 0 0 1 -40.14999999999999 -109.5)"  >
<path style="stroke: none; stroke-width: 1; stroke-dasharray: none; stroke-linecap: butt; stroke-dashoffset: 0; stroke-linejoin: miter; stroke-miterlimit: 4; fill: rgb(255,255,255); fill-rule: nonzero; opacity: 1;"  paint-order="stroke"  transform=" translate(-96.3, -40.5)" d="M 96.3 35.2 C 93.39999999999999 35.2 91 37.6 91 40.5 C 91 43.4 93.4 45.8 96.3 45.8 C 99.2 45.8 101.6 43.4 101.6 40.5 C 101.5 37.5 99.2 35.2 96.3 35.2 z" stroke-linecap="round" />
</g>
		<g transform="matrix(1 0 0 1 -58.64999999999999 -98.9)"  >
<path style="stroke: none; stroke-width: 1; stroke-dasharray: none; stroke-linecap: butt; stroke-dashoffset: 0; stroke-linejoin: miter; stroke-miterlimit: 4; fill: rgb(255,255,255); fill-rule: nonzero; opacity: 1;"  paint-order="stroke"  transform=" translate(-77.8, -51.099999999999994)" d="M 77.8 45.3 C 74.6 45.3 72 47.9 72 51.099999999999994 C 72 54.29999999999999 74.6 56.89999999999999 77.8 56.89999999999999 C 81 56.89999999999999 83.6 54.29999999999999 83.6 51.099999999999994 C 83.6 47.9 81 45.3 77.8 45.3 z" stroke-linecap="round" />
</g>
		<g transform="matrix(1 0 0 1 -75.75 -84.9)"  >
<path style="stroke: none; stroke-width: 1; stroke-dasharray: none; stroke-linecap: butt; stroke-dashoffset: 0; stroke-linejoin: miter; stroke-miterlimit: 4; fill: rgb(255,255,255); fill-rule: nonzero; opacity: 1;"  paint-order="stroke"  transform=" translate(-60.699999999999996, -65.1)" d="M 54.3 65.1 C 54.3 68.6 57.199999999999996 71.5 60.699999999999996 71.5 C 64.19999999999999 71.5 67.1 68.6 67.1 65.1 C 67.1 61.599999999999994 64.19999999999999 58.699999999999996 60.699999999999996 58.699999999999996 C 57.2 58.7 54.3 61.5 54.3 65.1 z" stroke-linecap="round" />
</g>
		<g transform="matrix(1 0 0 1 -90.94999999999999 -67.7)"  >
<circle style="stroke: none; stroke-width: 1; stroke-dasharray: none; stroke-linecap: butt; stroke-dashoffset: 0; stroke-linejoin: miter; stroke-miterlimit: 4; fill: rgb(255,255,255); fill-rule: nonzero; opacity: 1;"  paint-order="stroke"  cx="0" cy="0" r="6.9" />
</g>
		<g transform="matrix(1 0 0 1 133.95 -62.5)"  >
<circle style="stroke: none; stroke-width: 1; stroke-dasharray: none; stroke-linecap: butt; stroke-dashoffset: 0; stroke-linejoin: miter; stroke-miterlimit: 4; fill: rgb(255,255,255); fill-rule: nonzero; opacity: 1;"  paint-order="stroke"  cx="0" cy="0" r="2.5" />
</g>
		<g transform="matrix(1 0 0 1 117.45000000000002 -88.19999999999999)"  >
<path style="stroke: none; stroke-width: 1; stroke-dasharray: none; stroke-linecap: butt; stroke-dashoffset: 0; stroke-linejoin: miter; stroke-miterlimit: 4; fill: rgb(255,255,255); fill-rule: nonzero; opacity: 1;"  paint-order="stroke"  transform=" translate(-253.9, -61.800000000000004)" d="M 253.9 65.2 C 255.8 65.2 257.3 63.7 257.3 61.800000000000004 C 257.3 59.900000000000006 255.8 58.400000000000006 253.9 58.400000000000006 C 252 58.400000000000006 250.5 59.900000000000006 250.5 61.800000000000004 C 250.6 63.7 252.1 65.2 253.9 65.2 z" stroke-linecap="round" />
</g>
		<g transform="matrix(1 0 0 1 97.15 -108.9)"  >
<circle style="stroke: none; stroke-width: 1; stroke-dasharray: none; stroke-linecap: butt; stroke-dashoffset: 0; stroke-linejoin: miter; stroke-miterlimit: 4; fill: rgb(255,255,255); fill-rule: nonzero; opacity: 1;"  paint-order="stroke"  cx="0" cy="0" r="4.2" />
</g>
		<g transform="matrix(1 0 0 1 73.85000000000002 -124.9)"  >
<circle style="stroke: none; stroke-width: 1; stroke-dasharray: none; stroke-linecap: butt; stroke-dashoffset: 0; stroke-linejoin: miter; stroke-miterlimit: 4; fill: rgb(255,255,255); fill-rule: nonzero; opacity: 1;"  paint-order="stroke"  cx="0" cy="0" r="5.1" />
</g>
		<g transform="matrix(1 0 0 1 48.45000000000002 -135.8)"  >
<path style="stroke: none; stroke-width: 1; stroke-dasharray: none; stroke-linecap: butt; stroke-dashoffset: 0; stroke-linejoin: miter; stroke-miterlimit: 4; fill: rgb(255,255,255); fill-rule: nonzero; opacity: 1;"  paint-order="stroke"  transform=" translate(-184.9, -14.2)" d="M 190.8 14.2 C 190.8 10.899999999999999 188.10000000000002 8.299999999999999 184.9 8.299999999999999 C 181.7 8.299999999999999 179 11 179 14.2 C 179 17.5 181.7 20.1 184.9 20.1 C 188.10000000000002 20.1 190.8 17.5 190.8 14.2 z" stroke-linecap="round" />
</g>
		<g transform="matrix(1 0 0 1 21.55000000000001 -141.7)"  >
<circle style="stroke: none; stroke-width: 1; stroke-dasharray: none; stroke-linecap: butt; stroke-dashoffset: 0; stroke-linejoin: miter; stroke-miterlimit: 4; fill: rgb(255,255,255); fill-rule: nonzero; opacity: 1;"  paint-order="stroke"  cx="0" cy="0" r="6.8" />
</g>
		<g transform="matrix(1 0 0 1 -5.949999999999989 -142.4)"  >
<circle style="stroke: none; stroke-width: 1; stroke-dasharray: none; stroke-linecap: butt; stroke-dashoffset: 0; stroke-linejoin: miter; stroke-miterlimit: 4; fill: rgb(255,255,255); fill-rule: nonzero; opacity: 1;"  paint-order="stroke"  cx="0" cy="0" r="7.6" />
</g>
		<g transform="matrix(1 0 0 1 -33.14999999999999 -137.8)"  >
<path style="stroke: none; stroke-width: 1; stroke-dasharray: none; stroke-linecap: butt; stroke-dashoffset: 0; stroke-linejoin: miter; stroke-miterlimit: 4; fill: rgb(255,255,255); fill-rule: nonzero; opacity: 1;"  paint-order="stroke"  transform=" translate(-103.3, -12.2)" d="M 111.8 12.2 C 111.8 7.499999999999999 108 3.6999999999999993 103.3 3.6999999999999993 C 98.6 3.6999999999999993 94.8 7.499999999999999 94.8 12.2 C 94.8 16.9 98.6 20.7 103.3 20.7 C 107.9 20.7 111.8 16.9 111.8 12.2 z" stroke-linecap="round" />
</g>
		<g transform="matrix(1 0 0 1 -59.55 -127.9)"  >
<path style="stroke: none; stroke-width: 1; stroke-dasharray: none; stroke-linecap: butt; stroke-dashoffset: 0; stroke-linejoin: miter; stroke-miterlimit: 4; fill: rgb(255,255,255); fill-rule: nonzero; opacity: 1;"  paint-order="stroke"  transform=" translate(-76.89999999999999, -22.1)" d="M 86.3 22.1 C 86.3 16.900000000000002 82.1 12.700000000000001 76.89999999999999 12.700000000000001 C 71.69999999999999 12.700000000000001 67.49999999999999 16.900000000000002 67.49999999999999 22.1 C 67.49999999999999 27.3 71.69999999999999 31.5 76.89999999999999 31.5 C 82.1 31.5 86.3 27.3 86.3 22.1 z" stroke-linecap="round" />
</g>
		<g transform="matrix(1 0 0 1 -84.05 -112.6)"  >
<path style="stroke: none; stroke-width: 1; stroke-dasharray: none; stroke-linecap: butt; stroke-dashoffset: 0; stroke-linejoin: miter; stroke-miterlimit: 4; fill: rgb(255,255,255); fill-rule: nonzero; opacity: 1;"  paint-order="stroke"  transform=" translate(-52.39999999999999, -37.400000000000006)" d="M 52.4 47.6 C 58 47.6 62.599999999999994 43 62.599999999999994 37.400000000000006 C 62.599999999999994 31.80000000000001 57.99999999999999 27.200000000000006 52.39999999999999 27.200000000000006 C 46.79999999999999 27.200000000000006 42.19999999999999 31.800000000000004 42.19999999999999 37.400000000000006 C 42.19999999999999 43.00000000000001 46.8 47.6 52.4 47.6 z" stroke-linecap="round" />
</g>
		<g transform="matrix(1 0 0 1 -105.94999999999999 -91.7)"  >
<circle style="stroke: none; stroke-width: 1; stroke-dasharray: none; stroke-linecap: butt; stroke-dashoffset: 0; stroke-linejoin: miter; stroke-miterlimit: 4; fill: rgb(255,255,255); fill-rule: nonzero; opacity: 1;"  paint-order="stroke"  cx="0" cy="0" r="11.1" />
</g>
		<g transform="matrix(1 0 0 1 -124.54999999999998 -65.3)"  >
<circle style="stroke: none; stroke-width: 1; stroke-dasharray: none; stroke-linecap: butt; stroke-dashoffset: 0; stroke-linejoin: miter; stroke-miterlimit: 4; fill: rgb(255,255,255); fill-rule: nonzero; opacity: 1;"  paint-order="stroke"  cx="0" cy="0" r="11.9" />
</g>
</g>
</g>
</g>
</g>
<g transform="matrix(1.9211538461538462 0 0 1.9211538461538462 639.9803081730773 683.5567690963528)" id="text-logo"  >
<g style=""  paint-order="stroke"   >
		<g transform="matrix(1 0 0 1 0 0)" id="text-logo-path-0"  >
<path style="stroke: none; stroke-width: 0; stroke-dasharray: none; stroke-linecap: butt; stroke-dashoffset: 0; stroke-linejoin: miter; stroke-miterlimit: 4; fill: rgb(255,255,255); fill-rule: nonzero; opacity: 1;"  paint-order="stroke"  transform=" translate(-311.43500000000006, 14.35)" d="M 22.55 0 L 29.52 0 L 29.52 -28.7 L 22.55 -28.7 L 22.55 -17.22 L 9.02 -17.22 L 9.02 -28.7 L 2.05 -28.7 L 2.05 0 L 9.02 0 L 9.02 -11.48 L 22.55 -11.48 Z M 56.62 0.41 C 66.42 0.41 71.34 -4.35 71.34 -14.39 C 71.34 -24.23 66.75 -29.11 56.62 -29.11 C 46.74 -29.11 41.82 -24.52 41.82 -14.39 C 41.82 -4.51 46.45 0.41 56.62 0.41 Z M 48.79 -14.39 C 48.79 -20.42 51.25 -23.37 56.62 -23.37 C 61.75 -23.37 64.37 -20.5 64.37 -14.39 C 64.37 -8.32 61.99 -5.33 56.62 -5.33 C 51.37 -5.33 48.79 -8.16 48.79 -14.39 Z M 97.29 0 L 104.84 0 L 111.52 -15.95 L 111.52 0 L 118.49 0 L 118.49 -28.7 L 109.88 -28.7 L 101.06 -7.63 L 92.25 -28.7 L 83.64 -28.7 L 83.64 0 L 90.61 0 L 90.61 -15.95 Z M 130.79 0 L 154.16 0 L 154.16 -5.74 L 137.76 -5.74 L 137.76 -11.48 L 150.06 -11.48 L 150.06 -17.22 L 137.76 -17.22 L 137.76 -22.96 L 154.16 -22.96 L 154.16 -28.7 L 130.79 -28.7 Z M 179.38 0.41 C 186.22 0.41 189.79 -1.07 191.26 -3.73 C 191.96 -5.08 192.33 -6.81 192.33 -8.94 C 192.33 -14.51 189.75 -17.22 182.49 -17.22 L 179.38 -17.22 C 176.5 -17.22 174.87 -17.22 174.04 -18.04 C 173.68 -18.41 173.47 -19.07 173.47 -19.97 C 173.47 -21.81 173.96 -22.67 175.64 -23.08 C 176.46 -23.29 177.73 -23.37 179.42 -23.37 C 181.84 -23.37 183.06 -23.17 183.88 -21.89 C 184.29 -21.28 184.5 -20.3 184.5 -19.02 L 191.51 -19.02 C 191.51 -26.57 187.41 -29.11 179.42 -29.11 C 172.57 -29.11 169 -27.63 167.57 -24.97 C 166.83 -23.62 166.46 -21.89 166.46 -19.76 C 166.46 -14.19 169.04 -11.48 176.3 -11.48 L 179.38 -11.48 C 182.12 -11.48 183.88 -11.32 184.75 -10.5 C 185.12 -10.09 185.32 -9.51 185.32 -8.73 C 185.32 -6.89 184.83 -6.07 183.19 -5.66 C 182.33 -5.45 181.06 -5.33 179.38 -5.33 C 176.42 -5.33 174.95 -5.58 174.13 -6.81 C 173.68 -7.42 173.47 -8.36 173.47 -9.68 L 166.46 -9.68 C 166.46 -4.47 168.47 -1.68 172.24 -0.49 C 174.09 0.12 176.46 0.41 179.38 0.41 Z M 219.43 0.41 C 228.78 0.41 233.45 -2.99 233.45 -9.8 L 226.48 -9.8 C 226.48 -6.85 223.2 -5.33 219.43 -5.33 C 214.14 -5.33 211.6 -8.04 211.6 -14.39 C 211.6 -20.5 213.98 -23.37 219.43 -23.37 C 223.41 -23.37 226.52 -22.14 226.52 -18.86 L 233.5 -18.86 C 233 -25.71 227.63 -29.11 219.43 -29.11 C 209.43 -29.11 204.63 -24.6 204.63 -14.39 C 204.63 -4.39 209.14 0.41 219.43 0.41 Z M 266.29 0 L 273.26 0 L 273.26 -28.7 L 266.29 -28.7 L 266.29 -17.22 L 252.76 -17.22 L 252.76 -28.7 L 245.79 -28.7 L 245.79 0 L 252.76 0 L 252.76 -11.48 L 266.29 -11.48 Z M 300.37 0.41 C 310.16 0.41 315.08 -4.35 315.08 -14.39 C 315.08 -24.23 310.49 -29.11 300.37 -29.11 C 290.49 -29.11 285.56 -24.52 285.56 -14.39 C 285.56 -4.51 290.2 0.41 300.37 0.41 Z M 292.53 -14.39 C 292.53 -20.42 295 -23.37 300.37 -23.37 C 305.49 -23.37 308.12 -20.5 308.12 -14.39 C 308.12 -8.32 305.74 -5.33 300.37 -5.33 C 295.12 -5.33 292.53 -8.16 292.53 -14.39 Z M 342.19 0.41 C 351.98 0.41 356.9 -4.35 356.9 -14.39 C 356.9 -24.23 352.31 -29.11 342.19 -29.11 C 332.31 -29.11 327.38 -24.52 327.38 -14.39 C 327.38 -4.51 332.02 0.41 342.19 0.41 Z M 334.35 -14.39 C 334.35 -20.42 336.81 -23.37 342.19 -23.37 C 347.31 -23.37 349.94 -20.5 349.94 -14.39 C 349.94 -8.32 347.56 -5.33 342.19 -5.33 C 336.94 -5.33 334.35 -8.16 334.35 -14.39 Z M 369.2 0 L 392.57 0 L 392.57 -5.74 L 376.17 -5.74 L 376.17 -28.7 L 369.2 -28.7 Z M 425.38 0 L 432.34 0 L 432.34 -28.7 L 425.38 -28.7 L 425.38 -17.22 L 411.84 -17.22 L 411.84 -28.7 L 404.88 -28.7 L 404.88 0 L 411.84 0 L 411.84 -11.48 L 425.38 -11.48 Z M 444.64 0 L 468.01 0 L 468.01 -5.74 L 451.61 -5.74 L 451.61 -11.48 L 463.91 -11.48 L 463.91 -17.22 L 451.61 -17.22 L 451.61 -22.96 L 468.01 -22.96 L 468.01 -28.7 L 444.64 -28.7 Z M 480.31 0 L 503.69 0 L 503.69 -5.74 L 487.28 -5.74 L 487.28 -28.7 L 480.31 -28.7 Z M 515.99 0 L 522.96 0 L 522.96 -8.2 L 530.34 -8.2 C 537.18 -8.2 540.46 -11.4 540.46 -18.49 C 540.46 -25.26 537.26 -28.7 530.34 -28.7 L 515.99 -28.7 Z M 530.34 -13.94 L 522.96 -13.94 L 522.96 -22.96 L 530.21 -22.96 C 532.39 -22.96 533.49 -21.57 533.49 -18.45 C 533.49 -15.46 532.43 -13.94 530.34 -13.94 Z M 556.04 0.41 C 558.22 0.41 559.32 -0.7 559.32 -2.87 C 559.32 -5.04 558.22 -6.15 556.04 -6.15 C 553.87 -6.15 552.76 -5.04 552.76 -2.87 C 552.76 -0.7 553.87 0.41 556.04 0.41 Z M 594.58 0 L 601.55 0 L 590.69 -28.7 L 583.31 -28.7 L 572.44 0 L 579.41 0 L 581.42 -5.33 L 592.57 -5.33 Z M 590.4 -11.07 L 583.59 -11.07 L 587 -20.05 Z M 613.85 0 L 620.82 0 L 620.82 -28.7 L 613.85 -28.7 Z" stroke-linecap="round" />
</g>
</g>
</g>
<g transform="matrix(1.9211538461538462 0 0 1.9211538461538462 640 416.5443745169915)" id="tagline-1aa710e7-9895-4be7-a91c-135423f31a22-logo"  >
<g style=""  paint-order="stroke"   >
		<g transform="matrix(1 0 0 1 0 0)" id="tagline-1aa710e7-9895-4be7-a91c-135423f31a22-logo-path-0"  >
<path style="stroke: none; stroke-width: 0; stroke-dasharray: none; stroke-linecap: butt; stroke-dashoffset: 0; stroke-linejoin: miter; stroke-miterlimit: 4; fill: rgb(255,255,255); fill-rule: nonzero; opacity: 1;"  paint-order="stroke"  transform=" translate(-37.345000000000006, 33.95)" d="M 53.35 0 L 69.84 0 L 69.84 -67.9 L 53.35 -67.9 L 53.35 -40.74 L 21.34 -40.74 L 21.34 -67.9 L 4.85 -67.9 L 4.85 0 L 21.34 0 L 21.34 -27.16 L 53.35 -27.16 Z" stroke-linecap="round" />
</g>
</g>
</g>
</svg>